<svg id="wave" style="transform:rotate(180deg); transition: 0.3s" viewBox="0 0 1440 100" version="1.1" xmlns="http://www.w3.org/2000/svg"><defs><linearGradient id="sw-gradient-0" x1="0" x2="0" y1="1" y2="0"><stop stop-color="rgba(191, 219, 255, 1)" offset="0%"></stop><stop stop-color="rgba(191, 219, 255, 1)" offset="100%"></stop></linearGradient></defs><path style="transform:translate(0, 0px); opacity:1" fill="url(#sw-gradient-0)" d="M0,10L10,18.3C20,27,40,43,60,46.7C80,50,100,40,120,43.3C140,47,160,63,180,70C200,77,220,73,240,61.7C260,50,280,30,300,30C320,30,340,50,360,48.3C380,47,400,23,420,16.7C440,10,460,20,480,25C500,30,520,30,540,31.7C560,33,580,37,600,45C620,53,640,67,660,63.3C680,60,700,40,720,30C740,20,760,20,780,21.7C800,23,820,27,840,36.7C860,47,880,63,900,66.7C920,70,940,60,960,58.3C980,57,1000,63,1020,55C1040,47,1060,23,1080,26.7C1100,30,1120,60,1140,66.7C1160,73,1180,57,1200,56.7C1220,57,1240,73,1260,75C1280,77,1300,63,1320,53.3C1340,43,1360,37,1380,28.3C1400,20,1420,10,1430,5L1440,0L1440,100L1430,100C1420,100,1400,100,1380,100C1360,100,1340,100,1320,100C1300,100,1280,100,1260,100C1240,100,1220,100,1200,100C1180,100,1160,100,1140,100C1120,100,1100,100,1080,100C1060,100,1040,100,1020,100C1000,100,980,100,960,100C940,100,920,100,900,100C880,100,860,100,840,100C820,100,800,100,780,100C760,100,740,100,720,100C700,100,680,100,660,100C640,100,620,100,600,100C580,100,560,100,540,100C520,100,500,100,480,100C460,100,440,100,420,100C400,100,380,100,360,100C340,100,320,100,300,100C280,100,260,100,240,100C220,100,200,100,180,100C160,100,140,100,120,100C100,100,80,100,60,100C40,100,20,100,10,100L0,100Z"></path></svg>