<?xml version="1.0" standalone="no"?>
<svg xmlns:xlink="http://www.w3.org/1999/xlink" id="wave" style="transform:rotate(180deg); transition: 0.3s" viewBox="0 0 1440 100" version="1.1" xmlns="http://www.w3.org/2000/svg"><defs><linearGradient id="sw-gradient-0" x1="0" x2="0" y1="1" y2="0"><stop stop-color="#cdc385" offset="0%"/><stop stop-color="#cdc385" offset="100%"/></linearGradient></defs><path style="transform:translate(0, 0px); opacity:1" fill="url(#sw-gradient-0)" d="M0,30L10,36.7C20,43,40,57,60,53.3C80,50,100,30,120,31.7C140,33,160,57,180,58.3C200,60,220,40,240,28.3C260,17,280,13,300,16.7C320,20,340,30,360,43.3C380,57,400,73,420,75C440,77,460,63,480,61.7C500,60,520,70,540,70C560,70,580,60,600,46.7C620,33,640,17,660,8.3C680,0,700,0,720,3.3C740,7,760,13,780,18.3C800,23,820,27,840,23.3C860,20,880,10,900,8.3C920,7,940,13,960,13.3C980,13,1000,7,1020,16.7C1040,27,1060,53,1080,58.3C1100,63,1120,47,1140,33.3C1160,20,1180,10,1200,15C1220,20,1240,40,1260,48.3C1280,57,1300,53,1320,45C1340,37,1360,23,1380,28.3C1400,33,1420,57,1430,68.3L1440,80L1440,100L1430,100C1420,100,1400,100,1380,100C1360,100,1340,100,1320,100C1300,100,1280,100,1260,100C1240,100,1220,100,1200,100C1180,100,1160,100,1140,100C1120,100,1100,100,1080,100C1060,100,1040,100,1020,100C1000,100,980,100,960,100C940,100,920,100,900,100C880,100,860,100,840,100C820,100,800,100,780,100C760,100,740,100,720,100C700,100,680,100,660,100C640,100,620,100,600,100C580,100,560,100,540,100C520,100,500,100,480,100C460,100,440,100,420,100C400,100,380,100,360,100C340,100,320,100,300,100C280,100,260,100,240,100C220,100,200,100,180,100C160,100,140,100,120,100C100,100,80,100,60,100C40,100,20,100,10,100L0,100Z"/></svg>